<svg xmlns="http://www.w3.org/2000/svg" viewBox="0 0 200 200" width="200" height="200">
  <defs>
    <radialGradient id="bg" cx="50%" cy="35%" r="65%">
      <stop offset="0%" stop-color="#888"/>
      <stop offset="100%" stop-color="#1a1a1a"/>
    </radialGradient>
    <radialGradient id="face" cx="45%" cy="40%" r="60%">
      <stop offset="0%" stop-color="#ffeccc"/>
      <stop offset="100%" stop-color="#f0d0b0"/>
    </radialGradient>
    <clipPath id="circle"><circle cx="100" cy="100" r="99"/></clipPath>
  </defs>

  <g clip-path="url(#circle)">
    <!-- background -->
    <rect width="200" height="200" fill="url(#bg)"/>

    <!-- hair back layer -->
    
    <path d="M 48 96 C 4 74 4 148 20 200 L 180 200 C 196 148 196 74 152 96 C 128 72 100 62 100 62 C 100 62 72 72 48 96 Z" fill="#deb84a"/>
    <path d="M 48 96 C 26 84 14 106 20 118 C 18 104 30 94 48 96 Z" fill="#deb84a" opacity="0.9"/>
    <path d="M 152 96 C 174 84 186 106 180 118 C 182 104 170 94 152 96 Z" fill="#deb84a" opacity="0.9"/>

    <!-- shoulders -->
    <ellipse cx="100" cy="208" rx="72" ry="52" fill="#d2b292"/>

    <!-- neck -->
    <rect x="88" y="140" width="24" height="38" rx="6" fill="url(#face)"/>

    <!-- head -->
    <ellipse cx="100" cy="112" rx="36" ry="40" fill="url(#face)"/>

    <!-- hair crown (over top of head) -->
    <path d="M 64 82 Q 100 65 136 82 Q 120 72 100 70 Q 80 72 64 82 Z" fill="#deb84a" opacity="0.85"/>

    <!-- features -->
    <path d="M 81 102 Q 87 99 93 102" fill="none" stroke="#1a0808" stroke-width="2" stroke-linecap="round"/>
                 <path d="M 107 102 Q 113 99 119 102" fill="none" stroke="#1a0808" stroke-width="2" stroke-linecap="round"/>
    <ellipse cx="87" cy="109" rx="5" ry="4" fill="#1a0808"/>
                <circle cx="88.5" cy="107.5" r="1.2" fill="white" opacity="0.7"/>
    <ellipse cx="113" cy="109" rx="5" ry="4" fill="#1a0808"/>
                <circle cx="114.5" cy="107.5" r="1.2" fill="white" opacity="0.7"/>
    <ellipse cx="100" cy="120" rx="3" ry="2" fill="#f0d0b0" stroke="#00000020" stroke-width="1"/>
    <path d="M 89 130 Q 100 137 111 130 Q 100 140 89 130 Z" fill="#dd1111"/>
                 <path d="M 89 130 Q 100 127 111 130" fill="none" stroke="#dd1111" stroke-width="1.5"/>
    
  </g>

  <!-- gold border -->
  <circle cx="100" cy="100" r="96" fill="none" stroke="#f5a623" stroke-width="5" opacity="0.85"/>
  <circle cx="100" cy="100" r="93" fill="none" stroke="#ffffff" stroke-width="1" opacity="0.15"/>
</svg>